<svg width="1539" height="409" viewBox="0 0 1539 409" fill="none" xmlns="http://www.w3.org/2000/svg">
<path d="M380.469 322C380.99 314.396 381.51 307.052 382.031 299.969C382.552 292.885 383.021 286.01 383.438 279.344L389.062 205.594C389.688 199.969 390.208 194.865 390.625 190.281C391.042 185.594 391.354 181.062 391.562 176.688C391.875 172.208 392.135 167.729 392.344 163.25C392.656 158.667 392.969 153.615 393.281 148.094C389.844 147.99 386.198 147.938 382.344 147.938C378.594 147.938 374.635 147.938 370.469 147.938H340.312C339.167 147.938 338.438 147.521 338.125 146.688C337.917 145.75 337.812 144.917 337.812 144.188V143.094L355 97.9375L354.844 97.3125C354.844 96.7917 355.156 96.375 355.781 96.0625C356.51 95.6458 358.073 95.3333 360.469 95.125C374.844 94.2917 388.75 93.5104 402.188 92.7812C415.729 91.9479 429.062 91.2188 442.188 90.5938C455.417 89.9688 468.594 89.3438 481.719 88.7188C494.948 88.0938 508.542 87.5208 522.5 87C523.75 87 525.052 87.1562 526.406 87.4688C527.865 87.7812 528.594 88.9271 528.594 90.9062C528.594 91.1146 528.542 91.3229 528.438 91.5312C528.333 91.7396 528.281 91.9479 528.281 92.1562C526.615 96.4271 525.052 100.49 523.594 104.344C522.24 108.198 520.885 112 519.531 115.75C518.177 119.5 516.771 123.302 515.312 127.156C513.958 131.01 512.448 135.073 510.781 139.344C510.677 139.448 510.469 139.969 510.156 140.906C509.844 141.74 509.375 142.729 508.75 143.875C508.125 144.917 507.292 145.906 506.25 146.844C505.208 147.781 503.906 148.302 502.344 148.406C501.823 148.302 501.302 148.25 500.781 148.25C500.26 148.25 499.688 148.25 499.062 148.25H457.344C456.823 153.562 456.302 159.188 455.781 165.125C455.365 171.062 454.844 176.844 454.219 182.469L442.812 304.5C442.708 305.438 442.5 306.375 442.188 307.312C441.979 308.25 441.302 308.927 440.156 309.344L395.938 325.281C394.792 325.698 393.281 326.219 391.406 326.844C389.531 327.469 387.708 327.781 385.938 327.781C384.479 327.781 383.177 327.417 382.031 326.688C380.99 325.958 380.469 324.604 380.469 322.625V322ZM533.9 322L541.712 215.125C544.317 179.292 546.244 152.99 547.494 136.219C548.744 119.448 549.369 111.115 549.369 111.219C549.473 109.344 549.577 107.781 549.681 106.531C549.785 105.281 549.994 104.24 550.306 103.406C550.619 102.573 551.035 101.948 551.556 101.531C552.077 101.115 552.858 100.802 553.9 100.594L607.962 87.625C609.317 87.2083 610.723 87 612.181 87C613.64 87 614.629 87.4688 615.15 88.4062C615.671 89.2396 615.931 91.0104 615.931 93.7188C615.202 100.177 614.629 106.219 614.212 111.844C613.796 117.469 613.431 122.833 613.119 127.938C612.91 133.042 612.702 137.99 612.494 142.781C612.285 147.469 612.025 152.156 611.712 156.844C611.087 161.948 610.515 167.052 609.994 172.156C609.577 177.26 609.16 182.573 608.744 188.094C608.327 193.51 607.858 199.292 607.337 205.438C606.921 211.479 606.4 218.094 605.775 225.281L598.9 307.625C598.796 308.562 598.587 309.5 598.275 310.438C598.067 311.271 597.39 311.948 596.244 312.469C596.14 312.469 595.515 312.677 594.369 313.094C593.223 313.51 591.712 314.083 589.837 314.812C587.962 315.438 585.775 316.115 583.275 316.844C580.775 317.573 578.119 318.25 575.306 318.875C570.619 319.917 566.504 320.958 562.962 322C559.525 323.042 556.452 323.979 553.744 324.812C551.035 325.75 548.535 326.479 546.244 327C543.952 327.521 541.66 327.781 539.369 327.781C537.806 327.781 536.504 327.365 535.462 326.531C534.421 325.698 533.9 324.188 533.9 322ZM726.081 93.4062C725.873 94.9688 725.665 97.4688 725.456 100.906C725.248 104.24 724.935 108.094 724.519 112.469C724.206 116.844 723.894 121.531 723.581 126.531C723.269 131.427 722.904 136.219 722.487 140.906C722.175 145.49 721.81 149.708 721.394 153.562C721.081 157.417 720.821 160.49 720.612 162.781L728.581 154.656L750.769 127.156C753.477 123.719 756.185 120.385 758.894 117.156C761.602 113.823 763.998 110.854 766.081 108.25C768.269 105.542 770.04 103.302 771.394 101.531C772.748 99.7604 773.529 98.7708 773.737 98.5625L843.112 92.7812C843.321 92.6771 843.79 92.625 844.519 92.625H845.769C848.165 92.625 849.362 93.25 849.362 94.5C849.362 95.2292 848.998 96.1146 848.269 97.1562C847.644 98.0938 846.654 99.3438 845.3 100.906C843.633 102.885 841.185 105.75 837.956 109.5C834.831 113.146 831.394 117.208 827.644 121.688C823.894 126.062 819.987 130.646 815.925 135.438C811.967 140.125 808.269 144.5 804.831 148.562C801.394 152.521 798.425 155.958 795.925 158.875C793.529 161.792 792.019 163.667 791.394 164.5L781.55 173.875C774.883 180.229 766.342 188.146 755.925 197.625C759.154 200.958 762.592 204.604 766.237 208.562C769.987 212.417 773.529 216.167 776.862 219.812C780.3 223.354 783.373 226.583 786.081 229.5C788.894 232.417 790.977 234.604 792.331 236.062L840.612 292C841.133 292.625 841.81 293.146 842.644 293.562C843.477 293.979 844.31 294.344 845.144 294.656C845.977 294.969 846.654 295.333 847.175 295.75C847.8 296.062 848.112 296.479 848.112 297C848.112 297.625 847.435 298.615 846.081 299.969C845.248 300.802 843.685 302.052 841.394 303.719C839.102 305.281 836.394 307 833.269 308.875C830.248 310.75 826.967 312.677 823.425 314.656C819.883 316.635 816.446 318.406 813.112 319.969C809.883 321.635 806.862 322.99 804.05 324.031C801.342 325.073 799.258 325.594 797.8 325.594C795.612 325.594 793.321 324.604 790.925 322.625C788.529 320.75 785.665 317.885 782.331 314.031C778.998 310.073 775.04 305.073 770.456 299.031C765.873 292.99 760.352 285.906 753.894 277.781C750.144 273.094 746.498 268.51 742.956 264.031C739.415 259.448 736.081 255.177 732.956 251.219C729.831 247.156 726.967 243.562 724.362 240.438C721.862 237.208 719.779 234.604 718.112 232.625C717.279 233.458 716.394 234.292 715.456 235.125C714.519 235.854 713.633 236.635 712.8 237.469L707.331 304.5C707.227 305.438 707.019 306.375 706.706 307.312C706.498 308.25 705.821 308.927 704.675 309.344L660.456 325.281C659.31 325.698 657.8 326.219 655.925 326.844C654.05 327.469 652.227 327.781 650.456 327.781C648.894 327.781 647.592 327.365 646.55 326.531C645.508 325.698 644.987 324.188 644.987 322C645.508 315.854 646.133 307.885 646.862 298.094C647.696 288.302 648.529 277.156 649.362 264.656C650.3 252.052 651.237 238.354 652.175 223.562C653.217 208.667 654.31 193.042 655.456 176.688L659.831 110.906C659.935 109.031 660.04 107.469 660.144 106.219C660.248 104.969 660.404 103.927 660.612 103.094C660.821 102.26 661.185 101.635 661.706 101.219C662.227 100.802 663.008 100.49 664.05 100.281L718.112 87.3125C719.467 86.8958 720.873 86.6875 722.331 86.6875C723.79 86.6875 724.779 87.1562 725.3 88.0938C725.821 88.9271 726.081 90.6979 726.081 93.4062ZM903.731 322C904.252 314.396 904.773 307.052 905.294 299.969C905.815 292.885 906.283 286.01 906.7 279.344L912.325 205.594C912.95 199.969 913.471 194.865 913.888 190.281C914.304 185.594 914.617 181.062 914.825 176.688C915.138 172.208 915.398 167.729 915.606 163.25C915.919 158.667 916.231 153.615 916.544 148.094C913.106 147.99 909.46 147.938 905.606 147.938C901.856 147.938 897.898 147.938 893.731 147.938H863.575C862.429 147.938 861.7 147.521 861.388 146.688C861.179 145.75 861.075 144.917 861.075 144.188V143.094L878.263 97.9375L878.106 97.3125C878.106 96.7917 878.419 96.375 879.044 96.0625C879.773 95.6458 881.335 95.3333 883.731 95.125C898.106 94.2917 912.013 93.5104 925.45 92.7812C938.992 91.9479 952.325 91.2188 965.45 90.5938C978.679 89.9688 991.856 89.3438 1004.98 88.7188C1018.21 88.0938 1031.8 87.5208 1045.76 87C1047.01 87 1048.31 87.1562 1049.67 87.4688C1051.13 87.7812 1051.86 88.9271 1051.86 90.9062C1051.86 91.1146 1051.8 91.3229 1051.7 91.5312C1051.6 91.7396 1051.54 91.9479 1051.54 92.1562C1049.88 96.4271 1048.31 100.49 1046.86 104.344C1045.5 108.198 1044.15 112 1042.79 115.75C1041.44 119.5 1040.03 123.302 1038.58 127.156C1037.22 131.01 1035.71 135.073 1034.04 139.344C1033.94 139.448 1033.73 139.969 1033.42 140.906C1033.11 141.74 1032.64 142.729 1032.01 143.875C1031.39 144.917 1030.55 145.906 1029.51 146.844C1028.47 147.781 1027.17 148.302 1025.61 148.406C1025.09 148.302 1024.56 148.25 1024.04 148.25C1023.52 148.25 1022.95 148.25 1022.33 148.25H980.606C980.085 153.562 979.565 159.188 979.044 165.125C978.627 171.062 978.106 176.844 977.481 182.469L966.075 304.5C965.971 305.438 965.763 306.375 965.45 307.312C965.242 308.25 964.565 308.927 963.419 309.344L919.2 325.281C918.054 325.698 916.544 326.219 914.669 326.844C912.794 327.469 910.971 327.781 909.2 327.781C907.742 327.781 906.44 327.417 905.294 326.688C904.252 325.958 903.731 324.604 903.731 322.625V322ZM1115.6 210.438C1115.6 217.938 1116.38 225.49 1117.94 233.094C1119.61 240.594 1122.32 247.365 1126.07 253.406C1129.82 259.448 1134.77 264.344 1140.91 268.094C1147.06 271.844 1154.66 273.719 1163.72 273.719C1170.7 273.302 1176.8 271.896 1182.01 269.5C1187.32 267 1191.85 263.823 1195.6 259.969C1199.45 256.01 1202.63 251.531 1205.13 246.531C1207.63 241.427 1209.61 236.115 1211.07 230.594C1212.53 224.969 1213.52 219.24 1214.04 213.406C1214.66 207.573 1214.97 201.948 1214.97 196.531C1214.97 189.135 1213.99 182 1212.01 175.125C1210.03 168.146 1207.06 162 1203.1 156.688C1199.14 151.375 1194.19 147.104 1188.26 143.875C1182.42 140.646 1175.6 139.031 1167.79 139.031C1161.64 139.031 1156.07 140.177 1151.07 142.469C1146.17 144.76 1141.8 147.833 1137.94 151.688C1134.09 155.438 1130.76 159.812 1127.94 164.812C1125.24 169.708 1122.94 174.812 1121.07 180.125C1119.3 185.333 1117.94 190.594 1117.01 195.906C1116.17 201.115 1115.7 205.958 1115.6 210.438ZM1146.07 325.125C1130.44 325.125 1116.49 322.208 1104.19 316.375C1091.9 310.542 1081.49 302.677 1072.94 292.781C1064.51 282.781 1058 271.271 1053.41 258.25C1048.93 245.125 1046.69 231.271 1046.69 216.688C1046.69 200.333 1048.99 185.281 1053.57 171.531C1058.26 157.677 1064.77 145.438 1073.1 134.812C1081.43 124.083 1091.33 115.073 1102.79 107.781C1114.35 100.385 1127.01 94.9167 1140.76 91.375C1142.01 91.375 1142.94 90.3854 1143.57 88.4062C1144.3 86.4271 1144.92 84.2396 1145.44 81.8438C1145.96 79.4479 1146.59 77.2604 1147.32 75.2812C1148.05 73.3021 1149.09 72.3125 1150.44 72.3125C1170.65 74.3958 1188.83 77.9896 1204.97 83.0938C1221.12 88.0938 1234.82 95.2812 1246.07 104.656C1257.32 114.031 1265.91 125.906 1271.85 140.281C1277.89 154.552 1280.91 172 1280.91 192.625C1280.91 205.854 1279.3 218.302 1276.07 229.969C1272.84 241.635 1268.31 252.417 1262.47 262.312C1256.64 272.104 1249.61 280.906 1241.38 288.719C1233.26 296.427 1224.19 302.99 1214.19 308.406C1204.19 313.823 1193.41 317.938 1181.85 320.75C1170.39 323.667 1158.46 325.125 1146.07 325.125ZM1389.97 93.4062C1389.76 94.9688 1389.55 97.4688 1389.34 100.906C1389.14 104.24 1388.82 108.094 1388.41 112.469C1388.09 116.844 1387.78 121.531 1387.47 126.531C1387.16 131.427 1386.79 136.219 1386.38 140.906C1386.06 145.49 1385.7 149.708 1385.28 153.562C1384.97 157.417 1384.71 160.49 1384.5 162.781L1392.47 154.656L1414.66 127.156C1417.36 123.719 1420.07 120.385 1422.78 117.156C1425.49 113.823 1427.89 110.854 1429.97 108.25C1432.16 105.542 1433.93 103.302 1435.28 101.531C1436.64 99.7604 1437.42 98.7708 1437.62 98.5625L1507 92.7812C1507.21 92.6771 1507.68 92.625 1508.41 92.625H1509.66C1512.05 92.625 1513.25 93.25 1513.25 94.5C1513.25 95.2292 1512.89 96.1146 1512.16 97.1562C1511.53 98.0938 1510.54 99.3438 1509.19 100.906C1507.52 102.885 1505.07 105.75 1501.84 109.5C1498.72 113.146 1495.28 117.208 1491.53 121.688C1487.78 126.062 1483.88 130.646 1479.81 135.438C1475.85 140.125 1472.16 144.5 1468.72 148.562C1465.28 152.521 1462.31 155.958 1459.81 158.875C1457.42 161.792 1455.91 163.667 1455.28 164.5L1445.44 173.875C1438.77 180.229 1430.23 188.146 1419.81 197.625C1423.04 200.958 1426.48 204.604 1430.12 208.562C1433.88 212.417 1437.42 216.167 1440.75 219.812C1444.19 223.354 1447.26 226.583 1449.97 229.5C1452.78 232.417 1454.86 234.604 1456.22 236.062L1504.5 292C1505.02 292.625 1505.7 293.146 1506.53 293.562C1507.36 293.979 1508.2 294.344 1509.03 294.656C1509.86 294.969 1510.54 295.333 1511.06 295.75C1511.69 296.062 1512 296.479 1512 297C1512 297.625 1511.32 298.615 1509.97 299.969C1509.14 300.802 1507.57 302.052 1505.28 303.719C1502.99 305.281 1500.28 307 1497.16 308.875C1494.14 310.75 1490.85 312.677 1487.31 314.656C1483.77 316.635 1480.33 318.406 1477 319.969C1473.77 321.635 1470.75 322.99 1467.94 324.031C1465.23 325.073 1463.15 325.594 1461.69 325.594C1459.5 325.594 1457.21 324.604 1454.81 322.625C1452.42 320.75 1449.55 317.885 1446.22 314.031C1442.89 310.073 1438.93 305.073 1434.34 299.031C1429.76 292.99 1424.24 285.906 1417.78 277.781C1414.03 273.094 1410.39 268.51 1406.84 264.031C1403.3 259.448 1399.97 255.177 1396.84 251.219C1393.72 247.156 1390.85 243.562 1388.25 240.438C1385.75 237.208 1383.67 234.604 1382 232.625C1381.17 233.458 1380.28 234.292 1379.34 235.125C1378.41 235.854 1377.52 236.635 1376.69 237.469L1371.22 304.5C1371.11 305.438 1370.91 306.375 1370.59 307.312C1370.39 308.25 1369.71 308.927 1368.56 309.344L1324.34 325.281C1323.2 325.698 1321.69 326.219 1319.81 326.844C1317.94 327.469 1316.11 327.781 1314.34 327.781C1312.78 327.781 1311.48 327.365 1310.44 326.531C1309.4 325.698 1308.88 324.188 1308.88 322C1309.4 315.854 1310.02 307.885 1310.75 298.094C1311.58 288.302 1312.42 277.156 1313.25 264.656C1314.19 252.052 1315.12 238.354 1316.06 223.562C1317.1 208.667 1318.2 193.042 1319.34 176.688L1323.72 110.906C1323.82 109.031 1323.93 107.469 1324.03 106.219C1324.14 104.969 1324.29 103.927 1324.5 103.094C1324.71 102.26 1325.07 101.635 1325.59 101.219C1326.11 100.802 1326.9 100.49 1327.94 100.281L1382 87.3125C1383.35 86.8958 1384.76 86.6875 1386.22 86.6875C1387.68 86.6875 1388.67 87.1562 1389.19 88.0938C1389.71 88.9271 1389.97 90.6979 1389.97 93.4062Z" fill="white"/>
<path d="M363.41 51.5312H284.48L236.59 118.251L261.69 174.391L363.41 51.5312Z" fill="#E1351F"/>
<path d="M250.458 356.379H334.018L255.078 214.359L211.488 274.139L250.458 356.379Z" fill="#E1351F"/>
<path d="M181.428 51.5312L247.488 191.241L128.588 356.381H48.9883L177.778 193.461L98.5283 51.5312H181.428Z" fill="#E1351F"/>
</svg>
